<svg width="137" height="127" viewBox="0 0 137 127" fill="none" xmlns="http://www.w3.org/2000/svg">
<g clip-path="url(#clip0_1109_13)">
<path d="M93.2137 117.04H125.206C127.774 117.04 129.557 115.221 130.418 112.83C140.181 85.7404 138.021 54.6355 125.157 29.1242C124.268 27.3629 122.338 26.2847 120.49 26.2847C85.8299 26.2847 51.17 26.2847 16.5102 26.2847C14.6621 26.2847 12.7315 27.3629 11.8433 29.1242C-1.02077 54.6355 -3.18079 85.7405 6.58176 112.83C7.44382 115.223 9.25002 117.04 11.7935 117.04H48.0919C55.0473 117.04 55.0588 105.573 48.0919 105.573H11.7935L17.0052 109.782C8.25759 85.5085 9.59099 57.8884 21.1771 34.9116L16.5102 37.7511C51.1701 37.7511 85.83 37.7511 120.49 37.7511L115.823 34.9116C127.409 57.8883 128.742 85.5087 119.995 109.782L125.207 105.573H93.2138C86.2583 105.573 86.2468 117.04 93.2137 117.04Z" fill="#122439"/>
<path d="M72.7785 126.157C86.1684 126.311 98.8312 116.3 102.3 102.513C105.735 88.8625 100.202 73.9635 89.3627 65.9859C78.4163 57.9294 62.5092 58.0143 51.6299 66.1349C40.206 74.6621 34.2171 90.1302 38.9246 104.518C43.8091 119.448 59.5486 128.935 74.2153 125.952C77.0836 125.369 78.7196 121.715 77.9902 118.9C77.1653 115.715 74.2183 114.31 71.3417 114.895C63.5001 116.49 53.5884 110.973 50.055 103.252C46.0346 94.4659 48.5757 84.2496 55.1406 77.7566C61.8136 71.1565 72.2375 69.5426 80.4652 73.7467C88.5258 77.8654 93.3775 87.1687 92.4027 96.6316C91.3435 106.914 82.3761 114.801 72.7785 114.691C65.8206 114.611 65.8156 126.077 72.7785 126.157Z" fill="#122439"/>
<path d="M102.563 96.1647C109.955 78.2044 105.562 55.5485 88.487 45.8666C71.222 36.077 49.2362 41.7831 38.6814 59.4284C32.2761 70.1367 32.0534 83.5406 37.0601 94.8672C38.2993 97.6706 42.0982 98.3862 44.4549 96.924C47.1628 95.2439 47.6377 91.8938 46.3938 89.0799C40.1909 75.0472 48.2954 58.5579 61.7498 53.8771C73.7076 49.7169 89.3063 55.0002 93.6806 68.3815C95.9533 75.3335 96.0362 83.5566 93.2289 90.3774C92.0618 93.2128 92.4424 96.5305 95.1678 98.2215C97.4574 99.6421 101.389 99.0173 102.563 96.1647Z" fill="#122439"/>
<path d="M29.7419 30.4525C29.2631 29.0546 28.8095 27.6604 28.6091 26.1827L28.8022 27.7068C28.7356 27.0402 28.7263 26.3942 28.7902 25.7264L28.5971 27.2505C28.6415 26.9315 28.7279 26.6203 28.7735 26.3036C28.9508 25.731 28.873 25.8884 28.54 26.7759L28.6757 26.4928C29.3289 25.6209 27.7208 27.3235 28.5366 26.6356C29.3771 25.927 27.4128 27.3315 28.3435 26.7557C28.5994 26.5974 28.849 26.4481 29.1114 26.3021C30.0606 25.7738 27.8917 26.7478 28.9207 26.4033C29.5303 26.1993 30.1378 25.9947 30.7539 25.8124C33.5551 24.9834 36.4063 24.3674 39.2858 23.9394L37.849 24.1442C39.1699 23.956 40.4937 23.8075 41.8225 23.6987L36.4177 17.9654C36.6947 22.4107 36.9717 26.8559 37.2487 31.3012C37.4348 34.2876 39.6013 37.1794 42.6535 37.0344C45.4221 36.9029 48.258 34.506 48.0583 31.3012C47.7813 26.8559 47.5043 22.4107 47.2273 17.9654C47.0461 15.0577 44.8931 11.9808 41.8225 12.2322C38.8089 12.4789 35.7956 12.8995 32.8287 13.5139C30.3702 14.0229 27.8235 14.5874 25.489 15.5693C22.0472 17.0168 19.1276 19.5438 18.2768 23.5668C17.5536 26.9865 18.2133 30.2737 19.3184 33.5007C19.8069 34.9273 20.5336 36.1396 21.8022 36.9271C22.9607 37.6462 24.6681 37.9509 25.967 37.5051C28.5717 36.6109 30.7753 33.4705 29.7419 30.4525Z" fill="#122439"/>
<path d="M118.619 26.2847C112.177 25.3933 105.986 21.2716 102.272 15.6635C99.8352 11.9841 97.7628 8.19653 94.2747 5.4966C91.2362 3.14467 87.6009 1.93697 83.9132 1.3719C76.1164 0.177187 66.6641 -0.13672 59.1752 2.70431C55.3339 4.16158 51.8386 6.43892 49.2726 9.8405C47.9757 11.5598 47.0532 13.4436 46.0653 15.3644C45.3515 16.7525 44.7778 18.2693 43.2466 18.6541C36.4804 20.3548 39.345 31.414 46.1202 29.711C50.4486 28.6231 53.3446 25.1468 55.3991 21.1518C57.0922 17.8596 58.4906 15.3098 61.9017 13.8185C65.3714 12.3015 69.2576 12.2596 72.9456 12.2374C76.4281 12.2164 80.0748 12.0618 83.4933 12.8771C86.6354 13.6263 88.8117 15.0594 90.6864 17.8674C92.8928 21.1718 94.8439 24.5859 97.619 27.4183C103.433 33.3524 110.693 36.6545 118.619 37.7512C121.519 38.1524 124.024 34.829 124.024 32.018C124.024 28.5867 121.528 26.6871 118.619 26.2847Z" fill="#122439"/>
</g>
<defs>
<clipPath id="clip0_1109_13">
<rect width="136" height="126" fill="white" transform="translate(0.5 0.5)"/>
</clipPath>
</defs>
</svg>
