<svg width="49" height="49" viewBox="0 0 49 49" fill="none" xmlns="http://www.w3.org/2000/svg">
<g clip-path="url(#clip0_1019_337)">
<path fill-rule="evenodd" clip-rule="evenodd" d="M5.25028 6.05225C5.25028 5.82492 5.34059 5.6069 5.50133 5.44615C5.66208 5.28541 5.88009 5.1951 6.10742 5.1951H7.82171C8.50369 5.1951 9.15775 4.92419 9.63998 4.44195C10.1222 3.95971 10.3931 3.30566 10.3931 2.62367C10.3931 1.94169 10.1222 1.28764 9.63998 0.8054C9.15775 0.323164 8.50369 0.0522461 7.82171 0.0522461L6.10742 0.0522461C4.51612 0.0522461 2.99 0.684387 1.86478 1.80961C0.739563 2.93482 0.107422 4.46095 0.107422 6.05225L0.107422 7.76653C0.107422 8.44852 0.378339 9.10257 0.860576 9.58481C1.34281 10.067 1.99687 10.338 2.67885 10.338C3.36084 10.338 4.01489 10.067 4.49713 9.58481C4.97936 9.10257 5.25028 8.44852 5.25028 7.76653V6.05225ZM37.8217 2.62367C37.8217 1.94169 38.0926 1.28764 38.5749 0.8054C39.0571 0.323164 39.7112 0.0522461 40.3931 0.0522461L42.1074 0.0522461C45.4194 0.0522461 48.1074 2.74025 48.1074 6.05225V7.76653C48.1074 8.44852 47.8365 9.10257 47.3543 9.58481C46.872 10.067 46.218 10.338 45.536 10.338C44.854 10.338 44.2 10.067 43.7177 9.58481C43.2355 9.10257 42.9646 8.44852 42.9646 7.76653V6.05225C42.9646 5.82492 42.8743 5.6069 42.7135 5.44615C42.5528 5.28541 42.3348 5.1951 42.1074 5.1951H40.3931C39.7112 5.1951 39.0571 4.92419 38.5749 4.44195C38.0926 3.95971 37.8217 3.30566 37.8217 2.62367ZM12.1074 17.1951C12.1074 15.8311 12.6493 14.523 13.6137 13.5586C14.5782 12.5941 15.8863 12.0522 17.2503 12.0522H30.9646C32.3285 12.0522 33.6366 12.5941 34.6011 13.5586C35.5656 14.523 36.1074 15.8311 36.1074 17.1951V30.9094C36.1074 32.2734 35.5656 33.5815 34.6011 34.5459C33.6366 35.5104 32.3285 36.0522 30.9646 36.0522H17.2503C15.8863 36.0522 14.5782 35.5104 13.6137 34.5459C12.6493 33.5815 12.1074 32.2734 12.1074 30.9094V17.1951ZM45.536 37.7665C46.218 37.7665 46.872 38.0375 47.3543 38.5197C47.8365 39.0019 48.1074 39.656 48.1074 40.338V42.0522C48.1074 43.6435 47.4753 45.1697 46.3501 46.2949C45.2248 47.4201 43.6987 48.0522 42.1074 48.0522H40.3931C39.7112 48.0522 39.0571 47.7813 38.5749 47.2991C38.0926 46.8169 37.8217 46.1628 37.8217 45.4808C37.8217 44.7988 38.0926 44.1448 38.5749 43.6625C39.0571 43.1803 39.7112 42.9094 40.3931 42.9094H42.1074C42.3348 42.9094 42.5528 42.8191 42.7135 42.6583C42.8743 42.4976 42.9646 42.2796 42.9646 42.0522V40.338C42.9646 39.656 43.2355 39.0019 43.7177 38.5197C44.2 38.0375 44.854 37.7665 45.536 37.7665ZM5.25028 40.338C5.25028 39.656 4.97936 39.0019 4.49713 38.5197C4.01489 38.0375 3.36084 37.7665 2.67885 37.7665C1.99687 37.7665 1.34281 38.0375 0.860576 38.5197C0.378339 39.0019 0.107422 39.656 0.107422 40.338L0.107422 42.0522C0.107422 45.3642 2.79542 48.0522 6.10742 48.0522H7.82171C8.50369 48.0522 9.15775 47.7813 9.63998 47.2991C10.1222 46.8169 10.3931 46.1628 10.3931 45.4808C10.3931 44.7988 10.1222 44.1448 9.63998 43.6625C9.15775 43.1803 8.50369 42.9094 7.82171 42.9094H6.10742C5.88009 42.9094 5.66208 42.8191 5.50133 42.6583C5.34059 42.4976 5.25028 42.2796 5.25028 42.0522V40.338ZM18.1074 45.4808C18.1074 44.7988 18.3783 44.1448 18.8606 43.6625C19.3428 43.1803 19.9969 42.9094 20.6789 42.9094H27.536C28.218 42.9094 28.872 43.1803 29.3543 43.6625C29.8365 44.1448 30.1074 44.7988 30.1074 45.4808C30.1074 46.1628 29.8365 46.8169 29.3543 47.2991C28.872 47.7813 28.218 48.0522 27.536 48.0522H20.6789C19.9969 48.0522 19.3428 47.7813 18.8606 47.2991C18.3783 46.8169 18.1074 46.1628 18.1074 45.4808ZM20.6789 0.0522461C19.9969 0.0522461 19.3428 0.323164 18.8606 0.8054C18.3783 1.28764 18.1074 1.94169 18.1074 2.62367C18.1074 3.30566 18.3783 3.95971 18.8606 4.44195C19.3428 4.92419 19.9969 5.1951 20.6789 5.1951H27.536C28.218 5.1951 28.872 4.92419 29.3543 4.44195C29.8365 3.95971 30.1074 3.30566 30.1074 2.62367C30.1074 1.94169 29.8365 1.28764 29.3543 0.8054C28.872 0.323164 28.218 0.0522461 27.536 0.0522461L20.6789 0.0522461ZM2.67885 18.0522C3.36084 18.0522 4.01489 18.3232 4.49713 18.8054C4.97936 19.2876 5.25028 19.9417 5.25028 20.6237V27.4808C5.25028 28.1628 4.97936 28.8169 4.49713 29.2991C4.01489 29.7813 3.36084 30.0522 2.67885 30.0522C1.99687 30.0522 1.34281 29.7813 0.860576 29.2991C0.378339 28.8169 0.107422 28.1628 0.107422 27.4808L0.107422 20.6237C0.107422 19.9417 0.378339 19.2876 0.860576 18.8054C1.34281 18.3232 1.99687 18.0522 2.67885 18.0522ZM48.1074 20.6237C48.1074 19.9417 47.8365 19.2876 47.3543 18.8054C46.872 18.3232 46.218 18.0522 45.536 18.0522C44.854 18.0522 44.2 18.3232 43.7177 18.8054C43.2355 19.2876 42.9646 19.9417 42.9646 20.6237V27.4808C42.9646 28.1628 43.2355 28.8169 43.7177 29.2991C44.2 29.7813 44.854 30.0522 45.536 30.0522C46.218 30.0522 46.872 29.7813 47.3543 29.2991C47.8365 28.8169 48.1074 28.1628 48.1074 27.4808V20.6237Z" fill="white"/>
</g>
<defs>
<clipPath id="clip0_1019_337">
<rect width="48" height="48" fill="white" transform="translate(0.107422 0.0522461)"/>
</clipPath>
</defs>
</svg>
