<svg width="137" height="135" viewBox="0 0 137 135" fill="none" xmlns="http://www.w3.org/2000/svg">
<g clip-path="url(#clip0_1096_95)">
<path d="M5.15561 8.50829C1.61353 46.7402 0.0906493 85.1378 0.593694 123.531C0.639634 127.038 3.44752 129.723 6.8972 129.848C45.7011 131.259 84.5051 132.67 123.309 134.08C125.826 134.172 128.949 132.07 129.387 129.442C135.818 90.8856 137.965 51.7363 135.514 12.716C135.281 9.00617 132.791 6.80933 129.21 6.39846C90.2188 1.92456 50.9849 -0.176222 11.7396 0.108497C3.63057 0.167326 3.61206 12.8025 11.7396 12.7436C50.9849 12.4589 90.2188 14.5596 129.21 19.0335L122.907 12.716C125.285 50.5719 123.471 88.665 117.231 126.083L123.309 121.445C84.5051 120.034 45.7011 118.624 6.8972 117.213L13.2007 123.531C12.6977 85.1378 14.2205 46.7402 17.7626 8.50829C18.0778 5.10627 14.6398 2.19076 11.4591 2.19076C7.78755 2.19076 5.4717 5.09657 5.15561 8.50829Z" fill="#122439"/>
<path d="M66.3025 24.6324C64.5989 24.8673 63.2045 25.2934 61.6175 26.037C60.7646 26.4367 59.9968 27.0858 59.2988 27.6978C59.1023 27.8701 58.9332 28.0597 58.7686 28.2617C58.3136 28.8198 57.7981 29.3934 57.4664 30.0424C56.7497 31.4451 56.371 32.6962 56.3041 34.2724C56.2364 35.8655 56.6884 37.1432 57.3301 38.5504C58.0726 40.1788 59.6322 41.6827 61.1875 42.5375C62.9559 43.5095 65.0293 44.0481 67.053 43.9129C68.7865 43.7971 70.4516 43.4362 72.1084 42.9458C72.6187 42.7947 73.12 42.6279 73.6129 42.4269C74.5418 42.0482 75.5027 41.7034 76.3181 41.1065C77.6069 40.1631 78.4812 39.3918 79.3486 38.0384C79.8719 37.2219 80.2883 36.2757 80.4709 35.3206C80.7594 33.8118 80.8543 32.5275 80.448 31.02C80.0662 29.6035 79.3155 28.3304 78.2892 27.2885C77.2758 26.2598 76.0739 25.6609 74.7331 25.1821C73.8058 24.8509 72.7751 24.7653 71.7984 24.7249C71.3253 24.7054 70.8526 24.742 70.3826 24.7929C69.3063 24.9096 68.203 25.0069 67.1489 25.2718C64.9591 25.8221 63.0524 27.0565 61.6816 28.8347C60.9451 29.7901 60.3555 30.8011 60.0622 31.998C59.8909 32.6973 59.7911 33.4369 59.7903 34.1607C59.7896 34.7369 59.9323 35.4305 60.0253 35.9988C60.0514 36.1583 60.078 36.3017 60.1255 36.4566C60.8135 38.6968 62.4138 40.7426 64.5094 41.8288C66.4003 42.8089 68.498 43.2305 70.623 43.0997C72.6351 42.9759 74.4775 42.7115 76.2797 41.769C79.3568 40.1598 81.028 36.4668 80.1148 33.0913C79.1635 29.5748 75.769 27.2064 72.1825 27.2324C69.9234 27.2488 67.7403 28.1389 65.7598 29.1437C64.1839 29.9432 62.7422 31.0597 61.4378 32.2408C60.2755 33.2932 59.5915 35.1714 59.5915 36.708C59.5915 38.2575 60.2782 40.1083 61.4378 41.1752C62.6391 42.2804 64.2162 43.1009 65.895 43.0255C67.6148 42.9483 69.0653 42.3404 70.3523 41.1752C70.6429 40.9121 70.9415 40.6609 71.2503 40.4196L69.9746 41.4075C70.9145 40.695 71.9262 40.107 73.0102 39.6436L71.5045 40.2805C72.1327 40.0226 72.7708 39.7908 73.442 39.676L71.7663 39.9017C72.0486 39.8694 72.3137 39.8642 72.5964 39.8937L70.9207 39.6681C71.106 39.7044 71.2582 39.7452 71.4326 39.8149L69.9269 39.178C70.0791 39.2552 70.2068 39.3349 70.343 39.4378L69.0672 38.45C69.1507 38.5191 69.227 38.5954 69.2961 38.679L68.3104 37.4005C68.4104 37.5356 68.4809 37.6554 68.5486 37.8093L67.9132 36.3002C67.9499 36.3989 67.9732 36.5006 67.9831 36.6055L67.7579 34.926C67.7666 35.0253 67.7631 35.1241 67.7475 35.2224L67.9727 33.543C67.9593 33.6293 67.9367 33.7132 67.905 33.7945L68.5404 32.2854C68.4853 32.4065 68.4281 32.5038 68.3496 32.6112L69.3352 31.3326C69.2464 31.4331 69.159 31.516 69.0551 31.6009L70.3308 30.613C70.1777 30.721 70.0216 30.8093 69.8524 30.8895L71.3582 30.2526C70.9441 30.4258 70.5155 30.5269 70.0724 30.5911L71.7481 30.3654C70.8224 30.4785 69.876 30.5424 68.948 30.4285L70.6237 30.6541C70.2397 30.5918 69.873 30.5004 69.513 30.351L71.0188 30.9879C70.7707 30.8709 70.5438 30.7363 70.3226 30.5745L71.5983 31.5623C71.3869 31.3911 71.2022 31.2086 71.0315 30.9969L72.0172 32.2755C71.8933 32.1021 71.791 31.9279 71.7019 31.7342L72.3373 33.2433C72.2617 33.0437 72.2118 32.8515 72.182 32.64L72.4071 34.3194C72.3968 34.153 72.3997 34.0022 72.416 33.8363L72.1909 35.5157C72.2291 35.2992 72.2873 35.1022 72.3709 34.8988L71.7354 36.408C71.8328 36.2091 71.9431 36.0294 72.0745 35.8512L71.0889 37.1298C71.2679 36.9132 71.4604 36.7255 71.6796 36.5504L70.4038 37.5382C70.6477 37.3622 70.8985 37.2218 71.1713 37.0961L69.6655 37.733C70.279 37.4823 70.9134 37.351 71.5678 37.2605L69.8921 37.4861C70.69 37.3859 71.4867 37.3069 72.2891 37.4024L70.6134 37.1768C70.9298 37.2262 71.2275 37.3019 71.524 37.4249L70.0182 36.7881C70.2049 36.879 70.3715 36.9809 70.536 37.1079L69.2603 36.1201C69.3801 36.2278 69.4806 36.3337 69.5824 36.4587L68.5968 35.1801C68.6898 35.3156 68.7624 35.4427 68.8313 35.5919L68.1958 34.0828C68.2511 34.2337 68.2903 34.3741 68.3218 34.5318L68.0966 32.8523C68.1232 33.0655 68.1269 33.2679 68.1108 33.4821L68.336 31.8026C68.2986 32.0762 68.2326 32.3299 68.136 32.5881L68.7715 31.0789C68.66 31.3352 68.5289 31.568 68.3678 31.7957L69.3534 30.5171C69.1727 30.7462 68.9756 30.9413 68.7524 31.1285L70.0281 30.1406C69.6329 30.4436 69.2103 30.6787 68.7557 30.8801L70.2615 30.2432C68.9192 30.8002 67.4397 31.2119 66.0055 31.4361L67.6812 31.2105C67.0507 31.2944 66.43 31.3154 65.798 31.238L67.4737 31.4637C67.1325 31.4079 66.8115 31.3252 66.4881 31.2015L67.9939 31.8383C67.6379 31.6859 67.3159 31.5013 67.0057 31.2692L68.2815 32.2571C68.0299 32.052 67.8093 31.8308 67.6093 31.5745L68.595 32.8531C68.4425 32.6367 68.3187 32.417 68.2159 32.1732L68.8513 33.6824C68.7807 33.4833 68.731 33.2888 68.6981 33.08L68.9232 34.7595C68.9027 34.5372 68.9052 34.3266 68.9292 34.1047L68.704 35.7841C68.7433 35.5601 68.801 35.352 68.8811 35.1392L68.2456 36.6483C68.3621 36.3859 68.5007 36.1495 68.6688 35.9175L67.6832 37.1961C67.9015 36.923 68.1409 36.6859 68.4132 36.4666L67.1375 37.4545C67.4874 37.1957 67.8521 36.9979 68.2523 36.8277L66.7465 37.4646C67.6831 37.1025 68.6644 36.9526 69.654 36.8162C71.1008 36.6166 72.7225 35.1093 73.4211 33.9129C74.2118 32.5587 74.5468 30.563 74.0566 29.0448C73.563 27.5162 72.6178 26.0413 71.1597 25.2693L69.654 24.6324C68.5368 24.3315 67.4196 24.3315 66.3025 24.6324Z" fill="#122439"/>
<path d="M35.5223 72.1659L98.408 73.3971C106.524 73.556 106.523 60.9209 98.408 60.762L35.5223 59.5308C27.4065 59.3719 27.4068 72.007 35.5223 72.1659Z" fill="#122439"/>
<path d="M35.5223 101.634L98.408 102.865C106.524 103.024 106.523 90.3892 98.408 90.2303L35.5223 88.999C27.4065 88.8401 27.4068 101.475 35.5223 101.634Z" fill="#122439"/>
</g>
<defs>
<clipPath id="clip0_1096_95">
<rect width="136" height="134" fill="white" transform="translate(0.5 0.5)"/>
</clipPath>
</defs>
</svg>
