<svg width="146" height="48" viewBox="0 0 146 48" fill="none" xmlns="http://www.w3.org/2000/svg">
<path fill-rule="evenodd" clip-rule="evenodd" d="M13.0556 10.2916C13.7766 10.2916 14.3611 10.8761 14.3611 11.5972V16.8194H15.6667C15.7548 16.8194 15.8416 16.8194 15.9273 16.8194C18.1063 16.8188 19.5155 16.8184 20.6984 17.2028C23.0833 17.9777 24.953 19.8473 25.7278 22.2321C26.1122 23.4151 26.1118 24.8243 26.1113 27.0033C26.1113 27.0889 26.1111 27.1757 26.1111 27.2638C26.1111 27.352 26.1113 27.4388 26.1113 27.5244C26.1118 29.7034 26.1122 31.1126 25.7278 32.2956C24.953 34.6803 23.0833 36.55 20.6984 37.3249C19.5155 37.7093 18.1063 37.7089 15.9273 37.7083C15.8416 37.7083 15.7548 37.7083 15.6667 37.7083H10.4445C10.3565 37.7083 10.2696 37.7083 10.184 37.7083C8.00501 37.7089 6.59582 37.7093 5.41279 37.3249C3.02803 36.55 1.15833 34.6803 0.383485 32.2956C-0.000909358 31.1126 -0.000530908 29.7034 4.35361e-05 27.5244C6.96472e-05 27.4388 9.58292e-05 27.352 9.58292e-05 27.2638C9.58292e-05 27.1757 6.96472e-05 27.0889 4.35361e-05 27.0033C-0.000530908 24.8243 -0.000909358 23.4151 0.383485 22.2321C1.15833 19.8473 3.02803 17.9777 5.41279 17.2028C6.59582 16.8184 8.00502 16.8188 10.184 16.8194C10.2696 16.8194 10.3565 16.8194 10.4445 16.8194H11.75V11.5972C11.75 10.8761 12.3347 10.2916 13.0556 10.2916ZM10.4445 19.4305C7.91291 19.4305 6.95674 19.4466 6.21967 19.6861C4.62983 20.2027 3.38336 21.4491 2.8668 23.0389C2.6273 23.7761 2.61121 24.7322 2.61121 27.2638C2.61121 29.7955 2.6273 30.7516 2.8668 31.4888C3.38336 33.0785 4.62983 34.3251 6.21967 34.8416C6.95674 35.0811 7.91291 35.0972 10.4445 35.0972H15.6667C18.1984 35.0972 19.1546 35.0811 19.8916 34.8416C21.4815 34.3251 22.7279 33.0785 23.2445 31.4888C23.484 30.7516 23.5 29.7955 23.5 27.2638C23.5 24.7322 23.484 23.7761 23.2445 23.0389C22.7279 21.4491 21.4815 20.2027 19.8916 19.6861C19.1546 19.4466 18.1984 19.4305 15.6667 19.4305H10.4445ZM6.52787 25.9583C6.52787 24.5162 7.69691 23.3472 9.13899 23.3472C10.581 23.3472 11.75 24.5162 11.75 25.9583C11.75 27.4004 10.581 28.5694 9.13899 28.5694C7.69691 28.5694 6.52787 27.4004 6.52787 25.9583ZM14.3611 25.9583C14.3611 24.5162 15.5303 23.3472 16.9723 23.3472C18.4144 23.3472 19.5834 24.5162 19.5834 25.9583C19.5834 27.4004 18.4144 28.5694 16.9723 28.5694C15.5303 28.5694 14.3611 27.4004 14.3611 25.9583Z" fill="#3BEDB2"/>
<path d="M38.7683 34.5V15.4128H46.3666C50.1266 15.4128 52.4244 17.3711 52.4244 20.5567C52.4244 22.6717 51.4844 24.1861 49.6827 24.9433C51.6933 25.5961 52.7116 27.1106 52.7116 29.33C52.7116 32.5939 50.4399 34.5 46.4972 34.5H38.7683ZM46.0794 18.3633H42.1105V23.5594H46.1577C47.9855 23.5594 49.0038 22.5933 49.0038 20.8961C49.0038 19.2511 47.9594 18.3633 46.0794 18.3633ZM46.3666 26.3794H42.1105V31.5494H46.3666C48.2466 31.5494 49.291 30.6356 49.291 28.9122C49.291 27.2933 48.2205 26.3794 46.3666 26.3794ZM55.6456 27.5283V15.4128H58.9879V27.3194C58.9879 30.0611 60.4762 31.5756 63.1917 31.5756C65.9073 31.5756 67.4217 30.035 67.4217 27.3194V15.4128H70.764V27.5283C70.764 31.9933 67.8395 34.8133 63.1917 34.8133C58.5701 34.8133 55.6456 32.0194 55.6456 27.5283ZM83.2306 18.2328C79.4445 18.2328 77.2773 20.9744 77.2773 25.1C77.2773 29.3561 79.7317 31.68 83.2567 31.68C86.5728 31.68 88.5834 29.8522 88.5834 26.7972V26.7189H82.8128V23.7683H91.6906V34.5H88.8706L88.6617 32.3067C87.6173 33.7689 85.45 34.7872 82.865 34.7872C77.5123 34.7872 73.7784 30.8967 73.7784 25.0217C73.7784 19.225 77.5645 15.0994 83.3089 15.0994C87.6695 15.0994 91.0378 17.6322 91.5862 21.5228H88.0612C87.4606 19.2772 85.5284 18.2328 83.2306 18.2328ZM95.2998 34.5V15.4128H102.898C106.658 15.4128 108.956 17.3711 108.956 20.5567C108.956 22.6717 108.016 24.1861 106.214 24.9433C108.225 25.5961 109.243 27.1106 109.243 29.33C109.243 32.5939 106.972 34.5 103.029 34.5H95.2998ZM102.611 18.3633H98.6421V23.5594H102.689C104.517 23.5594 105.535 22.5933 105.535 20.8961C105.535 19.2511 104.491 18.3633 102.611 18.3633ZM102.898 26.3794H98.6421V31.5494H102.898C104.778 31.5494 105.823 30.6356 105.823 28.9122C105.823 27.2933 104.752 26.3794 102.898 26.3794ZM129.724 24.9433C129.724 30.74 125.912 34.8133 120.428 34.8133C114.971 34.8133 111.211 30.7661 111.211 24.9433C111.211 19.1467 114.997 15.0733 120.454 15.0733C125.912 15.0733 129.724 19.1206 129.724 24.9433ZM126.199 24.9433C126.199 20.87 123.953 18.285 120.454 18.285C116.956 18.285 114.71 20.87 114.71 24.9433C114.71 29.0167 116.956 31.6017 120.454 31.6017C123.953 31.6017 126.199 28.9644 126.199 24.9433ZM130.5 18.4939V15.4128H145.018V18.4939H139.43V34.5H136.088V18.4939H130.5Z" fill="#3BEDB2"/>
</svg>
