<svg width="137" height="137" viewBox="0 0 137 137" fill="none" xmlns="http://www.w3.org/2000/svg">
<g clip-path="url(#clip0_1096_128)">
<path d="M61.1956 112.261C46.9258 120.008 31.5965 125.112 15.1502 124.324L19.4748 134.641C29.0944 126.105 36.0117 116.243 40.4466 104.234C41.6394 101.004 39.0782 97.826 36.175 96.799C19.691 90.9681 10.098 71.5041 13.1335 54.8763C16.648 35.625 32.6015 20.4162 51.2462 14.979C72.234 8.85844 95.4069 14.1972 110.379 30.218C124.046 44.8424 128.312 66.141 120.292 84.5708C115.754 94.9993 107.695 103.306 97.3767 108.251C87.3311 113.066 76.7093 113.419 65.9083 111.652C62.6533 111.12 59.3245 112.494 58.3849 115.873C57.5809 118.765 59.3794 122.772 62.6565 123.308C68.3396 124.238 73.8918 125.147 79.6808 124.828C86.1383 124.473 92.5592 123.183 98.5764 120.829C110.454 116.182 120.455 108.159 127.228 97.4152C140.466 76.4155 139.405 48.8267 124.836 28.7738C109.075 7.07898 82.5876 -2.8247 56.0859 1.49107C32.0556 5.4044 10.2273 22.5003 2.82472 45.7218C-5.08148 70.5232 7.72636 99.542 32.9233 108.455L28.6517 101.02C24.9431 111.063 18.8302 118.991 10.8256 126.094C6.66148 129.789 10.1627 136.172 15.1502 136.411C33.6886 137.3 51.2949 131.425 67.3692 122.699C74.2704 118.952 68.1058 108.51 61.1956 112.261Z" fill="#122439"/>
<path d="M43.2112 54.3794L45.7905 47.5589L35.5685 50.2258C40.8723 55.7502 46.881 61.6494 54.6613 63.426C62.151 65.1362 70.483 63.3104 75.2344 57.0241C75.5905 56.553 77.2936 54.0798 77.3093 54.0937L74.7015 54.7351C73.8824 54.1977 73.8746 54.2749 74.6781 54.9668C74.922 55.4039 75.3553 55.9519 75.6509 56.3591C78.2189 59.8969 81.5402 62.4935 86.1526 62.4994C95.337 62.5111 99.7573 54.356 102.05 46.7941C104.315 39.3266 92.5132 36.1357 90.2555 43.5807C89.6443 45.5964 89.0327 48.9076 87.0678 50.1363C85.9421 50.8402 86.0753 50.0161 85.2854 48.9231C83.2221 46.0684 80.7839 43.6825 77.1867 42.9545C73.1259 42.1327 69.586 44.1467 67.2224 47.2817C65.9156 49.0151 65.2613 50.6849 63.2498 51.4952C61.8934 52.0416 59.879 52.1249 58.3047 51.8498C52.4798 50.832 48.0713 45.6924 44.2177 41.6785C40.8133 38.1325 35.531 40.2856 33.9956 44.3455L31.4163 51.166C30.2598 54.2241 32.7047 57.7907 35.6879 58.6007C39.1141 59.531 42.0505 57.4486 43.2112 54.3794Z" fill="#122439"/>
<path d="M54.0941 74.4064C55.2072 75.9919 54.4918 78.7489 52.8494 79.6871C51.8248 80.2723 50.527 80.2651 49.4847 79.7365C50.5902 80.2972 48.9386 78.9792 49.7726 79.9545C50.0044 80.1898 50.2258 80.4342 50.4369 80.6877C50.0447 80.1726 49.9744 80.0791 50.2263 80.4074C50.8015 80.6328 51.3966 81.9392 51.8838 82.5111C52.1757 82.8539 52.4795 83.1839 52.8094 83.4918C54.0647 84.6642 55.6699 85.7192 57.3515 86.1697C62.113 87.4453 66.0621 85.1087 69.3553 81.9387C69.8847 81.4291 70.403 80.9078 70.9512 80.4178C71.0737 80.3062 71.1981 80.1968 71.3244 80.0896C71.8131 79.6889 71.6535 79.8041 70.8454 80.4353C70.8242 80.3997 71.5923 79.9649 71.6261 79.9366C72.4355 79.2565 70.2987 80.3505 71.2519 80.092C71.8783 79.9509 71.6225 79.9759 70.4847 80.1669C71.1225 80.176 70.8818 80.1258 69.7624 80.0161L70.1694 80.1184C69.6566 80.0006 69.228 79.7454 68.8836 79.3528C69.0439 79.4844 69.1938 79.6266 69.3333 79.7792C69.6337 80.1039 69.5403 79.9677 69.0532 79.3707C69.6876 79.7632 70.2318 81.3704 70.5628 82.0094C70.9676 82.7909 71.415 83.5279 71.9398 84.2375C74.1171 87.1818 76.9036 89.0487 80.6908 89.2066C83.8913 89.34 86.9503 86.3313 86.8067 83.1627C86.6531 79.774 84.1196 77.2618 80.6908 77.1188C81.2415 77.1305 81.7454 77.2876 82.2023 77.5901C81.6462 77.2592 81.7204 77.3456 82.4249 77.8495C82.2114 77.6616 82.011 77.4608 81.8238 77.2471C82.3174 77.9096 82.3719 77.968 81.9875 77.4222C81.4186 76.4137 80.8959 75.3762 80.3171 74.3731C78.6887 71.5508 76.2814 69.18 73.0141 68.3601C67.658 67.0161 63.7777 70.533 60.215 73.8599C59.9082 74.1464 59.4817 74.4161 59.22 74.7387C60.0403 74.1317 60.1976 74.0072 59.6921 74.365C59.5222 74.4795 59.3477 74.5867 59.1686 74.6865C58.4036 75.319 60.5499 74.2669 59.5418 74.5353C58.9157 74.6783 59.1712 74.6547 60.3083 74.4644C59.6703 74.4577 59.9107 74.5095 61.0296 74.6199C60.3759 74.4374 60.4571 74.4901 61.2732 74.7782C60.7188 74.4212 60.7806 74.4767 61.4586 74.9445C61.2114 74.9497 60.3701 73.8234 60.246 73.6137C60.7517 74.2583 60.7875 74.3023 60.3536 73.7458L59.3973 72.5226C58.983 72.0091 58.5537 71.5171 58.0666 71.069C54.9448 68.1966 50.528 67.114 46.6757 69.2497C42.8506 71.3703 40.9042 76.7638 43.5323 80.5073C45.3521 83.0995 48.9751 84.5391 51.9 82.6756C54.5076 81.0143 56.0445 77.1845 54.0941 74.4064Z" fill="#122439"/>
</g>
<defs>
<clipPath id="clip0_1096_128">
<rect width="136" height="136" fill="white" transform="translate(0.5 0.5)"/>
</clipPath>
</defs>
</svg>
