<svg width="137" height="135" viewBox="0 0 137 135" fill="none" xmlns="http://www.w3.org/2000/svg">
<g clip-path="url(#clip0_1109_20)">
<path d="M5.15561 8.92529C1.61353 47.1571 0.0906493 85.5548 0.593694 123.948C0.639634 127.455 3.44752 130.14 6.8972 130.265C45.7011 131.676 84.5051 133.087 123.309 134.497C125.826 134.589 128.949 132.487 129.387 129.859C135.818 91.3026 137.965 52.1533 135.514 13.133C135.281 9.42316 132.791 7.22632 129.21 6.81546C90.2188 2.34155 50.9849 0.240771 11.7396 0.525489C3.63057 0.584318 3.61206 13.2195 11.7396 13.1606C50.9849 12.8759 90.2188 14.9766 129.21 19.4505L122.907 13.133C125.285 50.9889 123.471 89.082 117.231 126.5L123.309 121.862C84.5051 120.451 45.7011 119.041 6.8972 117.63L13.2007 123.948C12.6977 85.5548 14.2205 47.1571 17.7626 8.92529C18.0778 5.52327 14.6398 2.60775 11.4591 2.60775C7.78755 2.60775 5.4717 5.51356 5.15561 8.92529Z" fill="#122439"/>
<path d="M66.3025 25.0493C64.5989 25.2843 63.2045 25.7104 61.6175 26.454C60.7646 26.8537 59.9968 27.5028 59.2988 28.1148C59.1023 28.2871 58.9332 28.4767 58.7686 28.6787C58.3136 29.2368 57.7981 29.8103 57.4664 30.4594C56.7497 31.8621 56.371 33.1132 56.3041 34.6894C56.2364 36.2825 56.6884 37.5602 57.3301 38.9674C58.0726 40.5958 59.6322 42.0997 61.1875 42.9545C62.9559 43.9264 65.0293 44.4651 67.053 44.3299C68.7865 44.2141 70.4516 43.8532 72.1084 43.3627C72.6187 43.2117 73.12 43.0449 73.6129 42.8439C74.5418 42.4652 75.5027 42.1204 76.3181 41.5235C77.6069 40.5801 78.4812 39.8088 79.3486 38.4554C79.8719 37.6389 80.2883 36.6927 80.4709 35.7376C80.7594 34.2288 80.8543 32.9445 80.448 31.437C80.0662 30.0205 79.3155 28.7474 78.2892 27.7055C77.2758 26.6768 76.0739 26.0779 74.7331 25.599C73.8058 25.2679 72.7751 25.1823 71.7984 25.1419C71.3253 25.1224 70.8526 25.1589 70.3826 25.2099C69.3063 25.3266 68.203 25.4239 67.1489 25.6888C64.9591 26.2391 63.0524 27.4735 61.6816 29.2517C60.9451 30.2071 60.3555 31.2181 60.0622 32.415C59.8909 33.1143 59.7911 33.8539 59.7903 34.5777C59.7896 35.1539 59.9323 35.8475 60.0253 36.4158C60.0514 36.5753 60.078 36.7187 60.1255 36.8736C60.8135 39.1138 62.4138 41.1595 64.5094 42.2458C66.4003 43.2259 68.498 43.6475 70.623 43.5167C72.6351 43.3928 74.4775 43.1284 76.2797 42.186C79.3568 40.5768 81.028 36.8838 80.1148 33.5082C79.1635 29.9918 75.769 27.6234 72.1825 27.6494C69.9234 27.6657 67.7403 28.5559 65.7598 29.5606C64.1839 30.3601 62.7422 31.4767 61.4378 32.6578C60.2755 33.7102 59.5915 35.5884 59.5915 37.125C59.5915 38.6745 60.2782 40.5253 61.4378 41.5921C62.6391 42.6974 64.2162 43.5179 65.895 43.4425C67.6148 43.3653 69.0653 42.7574 70.3523 41.5921C70.6429 41.3291 70.9415 41.0779 71.2503 40.8366L69.9746 41.8245C70.9145 41.112 71.9262 40.524 73.0102 40.0606L71.5045 40.6975C72.1327 40.4396 72.7708 40.2078 73.442 40.093L71.7663 40.3187C72.0486 40.2864 72.3137 40.2812 72.5964 40.3107L70.9207 40.0851C71.106 40.1214 71.2582 40.1622 71.4326 40.2319L69.9269 39.595C70.0791 39.6722 70.2068 39.7519 70.343 39.8548L69.0672 38.867C69.1507 38.9361 69.227 39.0124 69.2961 39.096L68.3104 37.8174C68.4104 37.9526 68.4809 38.0724 68.5486 38.2263L67.9132 36.7172C67.9499 36.8159 67.9732 36.9176 67.9831 37.0225L67.7579 35.343C67.7666 35.4423 67.7631 35.5411 67.7475 35.6394L67.9727 33.96C67.9593 34.0463 67.9367 34.1301 67.905 34.2115L68.5404 32.7024C68.4853 32.8235 68.4281 32.9208 68.3496 33.0282L69.3352 31.7496C69.2464 31.8501 69.159 31.933 69.0551 32.0178L70.3308 31.03C70.1777 31.138 70.0216 31.2263 69.8524 31.3065L71.3582 30.6696C70.9441 30.8428 70.5155 30.9439 70.0724 31.0081L71.7481 30.7824C70.8224 30.8955 69.876 30.9594 68.948 30.8455L70.6237 31.0711C70.2397 31.0088 69.873 30.9174 69.513 30.768L71.0188 31.4049C70.7707 31.2879 70.5438 31.1532 70.3226 30.9915L71.5983 31.9793C71.3869 31.8081 71.2022 31.6256 71.0315 31.4139L72.0172 32.6925C71.8933 32.5191 71.791 32.3449 71.7019 32.1512L72.3373 33.6603C72.2617 33.4607 72.2118 33.2685 72.182 33.057L72.4071 34.7364C72.3968 34.57 72.3997 34.4192 72.416 34.2533L72.1909 35.9327C72.2291 35.7162 72.2873 35.5192 72.3709 35.3158L71.7354 36.825C71.8328 36.6261 71.9431 36.4464 72.0745 36.2682L71.0889 37.5468C71.2679 37.3302 71.4604 37.1425 71.6796 36.9674L70.4038 37.9552C70.6477 37.7792 70.8985 37.6388 71.1713 37.5131L69.6655 38.15C70.279 37.8993 70.9134 37.768 71.5678 37.6774L69.8921 37.9031C70.69 37.8029 71.4867 37.7239 72.2891 37.8194L70.6134 37.5938C70.9298 37.6432 71.2275 37.7189 71.524 37.8419L70.0182 37.205C70.2049 37.296 70.3715 37.3979 70.536 37.5249L69.2603 36.5371C69.3801 36.6448 69.4806 36.7507 69.5824 36.8756L68.5968 35.5971C68.6898 35.7326 68.7624 35.8597 68.8313 36.0089L68.1958 34.4998C68.2511 34.6507 68.2903 34.7911 68.3218 34.9488L68.0966 33.2693C68.1232 33.4825 68.1269 33.6849 68.1108 33.8991L68.336 32.2196C68.2986 32.4932 68.2326 32.7469 68.136 33.0051L68.7715 31.4959C68.66 31.7522 68.5289 31.985 68.3678 32.2127L69.3534 30.9341C69.1727 31.1632 68.9756 31.3583 68.7524 31.5454L70.0281 30.5576C69.6329 30.8606 69.2103 31.0957 68.7557 31.2971L70.2615 30.6602C68.9192 31.2172 67.4397 31.6289 66.0055 31.8531L67.6812 31.6275C67.0507 31.7114 66.43 31.7324 65.798 31.655L67.4737 31.8807C67.1325 31.8249 66.8115 31.7422 66.4881 31.6184L67.9939 32.2553C67.6379 32.1029 67.3159 31.9183 67.0057 31.6862L68.2815 32.6741C68.0299 32.469 67.8093 32.2478 67.6093 31.9915L68.595 33.2701C68.4425 33.0537 68.3187 32.834 68.2159 32.5902L68.8513 34.0994C68.7807 33.9003 68.731 33.7058 68.6981 33.497L68.9232 35.1765C68.9027 34.9542 68.9052 34.7436 68.9292 34.5217L68.704 36.2011C68.7433 35.9771 68.801 35.769 68.8811 35.5562L68.2456 37.0653C68.3621 36.8029 68.5007 36.5665 68.6688 36.3345L67.6832 37.6131C67.9015 37.34 68.1409 37.1029 68.4132 36.8836L67.1375 37.8714C67.4874 37.6127 67.8521 37.4149 68.2523 37.2447L66.7465 37.8816C67.6831 37.5195 68.6644 37.3696 69.654 37.2331C71.1008 37.0336 72.7225 35.5263 73.4211 34.3299C74.2118 32.9757 74.5468 30.98 74.0566 29.4618C73.563 27.9332 72.6178 26.4583 71.1597 25.6863L69.654 25.0494C68.5368 24.7485 67.4196 24.7485 66.3025 25.0493Z" fill="#122439"/>
</g>
<defs>
<clipPath id="clip0_1109_20">
<rect width="136" height="134" fill="white" transform="translate(0.5 0.5)"/>
</clipPath>
</defs>
</svg>
