<svg width="47" height="135" viewBox="0 0 47 135" fill="none" xmlns="http://www.w3.org/2000/svg">
<path d="M20.5703 115.991C21.2773 116.087 21.9535 116.266 22.6166 116.529L21.1257 115.9C21.8318 116.199 22.4836 116.58 23.0978 117.039L21.8347 116.063C22.5469 116.618 23.1706 117.254 23.724 117.967L22.7481 116.704C23.2945 117.435 23.7469 118.215 24.1145 119.051L23.4854 117.56C23.8635 118.461 24.1282 119.389 24.2743 120.355L24.0514 118.696C24.1696 119.588 24.1807 120.475 24.0689 121.369L24.2919 119.71C24.1806 120.47 23.984 121.198 23.6896 121.907L24.3187 120.417C24.0561 121.009 23.7361 121.559 23.3504 122.08L24.3263 120.817C23.9028 121.36 23.4266 121.841 22.8893 122.272L24.1524 121.296C23.512 121.787 22.8228 122.184 22.0813 122.501L23.5722 121.872C22.7583 122.202 21.9207 122.424 21.0523 122.554L22.7114 122.331C21.7066 122.463 20.7032 122.465 19.6973 122.342L21.3564 122.565C20.4192 122.433 19.5151 122.197 18.6371 121.843L20.128 122.472C19.3254 122.131 18.5801 121.704 17.8893 121.171L19.1524 122.147C18.6202 121.719 18.1449 121.243 17.7206 120.707L18.6965 121.97C18.2667 121.401 17.9175 120.795 17.6388 120.138L18.2679 121.629C18.0003 120.951 17.8226 120.259 17.7252 119.537L17.9481 121.196C17.8602 120.409 17.871 119.629 17.9695 118.843L17.7466 120.503C17.8816 119.577 18.1317 118.688 18.488 117.823L17.8589 119.314C18.2335 118.449 18.7001 117.644 19.2636 116.888L18.2877 118.151C18.8608 117.411 19.5069 116.751 20.2423 116.171L18.9791 117.147C19.6107 116.669 20.2807 116.268 21.006 115.949L19.5152 116.578C20.1876 116.3 20.8743 116.105 21.5937 115.995L19.9346 116.218C20.2675 116.175 20.5982 116.15 20.9336 116.142C22.559 116.101 24.1866 115.474 25.3467 114.314C26.4292 113.231 27.2443 111.455 27.1747 109.901C27.0264 106.59 24.43 103.571 20.9336 103.66C17.268 103.752 14.1514 105.136 11.3384 107.406C8.94451 109.338 7.38051 112.042 6.30261 114.877C5.23249 117.691 5.13898 121.013 5.89 123.915C6.7765 127.341 8.94024 130.004 11.7356 132.062C14.1341 133.828 17.0659 134.564 19.979 134.857C22.9482 135.155 25.868 134.422 28.5518 133.206C33.9434 130.762 37.266 124.528 36.5335 118.696C36.253 116.462 35.7787 114.719 34.8532 112.662C34.1937 111.196 33.2258 109.91 32.1864 108.689C30.1711 106.323 26.9915 104.377 23.8885 103.954C22.1476 103.717 20.664 103.656 19.0795 104.583C17.7849 105.341 16.5502 106.825 16.2113 108.313C15.8474 109.911 15.9262 111.704 16.8405 113.122C17.653 114.383 19.01 115.778 20.5703 115.991Z" fill="#122439"/>
<path d="M26.2408 90.5571C22.2259 77.6391 19.4062 64.2788 16.8756 51.0028C16.1889 47.4006 15.5426 43.7905 14.9539 40.1709C14.3811 36.6493 13.9435 33.676 13.6138 30.8809C13.2787 28.0397 12.9957 25.1876 12.8734 22.3284C12.8275 21.2576 12.8008 20.1852 12.8214 19.1135C12.8302 18.6494 12.8598 18.1868 12.8734 17.7231C12.9099 16.4823 13.1223 16.7488 12.8468 17.5245C12.9513 17.2303 12.8851 16.8317 13.0463 16.5591C13.6297 15.5724 12.555 17.0266 12.766 17.0812C12.766 17.0812 15.1931 14.3627 15.1779 14.3743C16.1729 13.6161 16.6343 13.493 18.0981 13.1537C19.452 12.8399 21.2633 12.7919 23.1563 12.7381C26.8555 12.6329 29.9494 12.4222 32.2163 14.0664C32.262 14.0996 33.4402 15.2617 33.8243 15.6362C34.1838 15.9867 34.4999 16.1068 34.2691 16.1069C33.937 16.107 34.2143 15.7527 34.2371 16.0813C34.2643 16.474 33.4312 14.6201 34.0323 15.6453C34.4703 16.3924 34.1015 16.5615 34.0712 15.3793C34.1227 17.3934 34.1696 19.336 33.9731 21.3528C33.9167 21.9319 33.8475 22.5095 33.7774 23.087C33.6631 24.0274 33.9326 22.0331 33.7863 23.0022C33.7453 23.2739 33.7084 23.5463 33.6643 23.8175C33.4115 25.3717 33.1467 26.9226 32.8471 28.4687C31.5345 35.2442 29.8186 41.9425 27.9786 48.5918C24.0626 62.7427 19.7145 76.9343 14.2046 90.5571C12.9403 93.683 15.5807 97.4147 18.5636 98.2343C22.1301 99.2142 24.9718 97.0128 26.2408 93.8753C31.5165 80.8315 35.6977 67.2625 39.5071 53.7293C41.6022 46.2861 43.5605 38.7809 44.9998 31.18C46.041 25.6815 47.1815 19.8486 46.402 14.2452C45.2946 6.285 37.1685 1.24562 29.717 0.412937C20.8962 -0.572772 10.7066 0.281575 4.56212 7.39036C0.621558 11.9493 0.129964 16.7335 0.402148 22.5775C0.739813 29.8271 1.85733 37.0644 3.03686 44.2166C5.78614 60.8873 9.18473 77.7236 14.2046 93.8753C16.581 101.522 28.6343 98.2586 26.2408 90.5571Z" fill="#122439"/>
</svg>
